<svg width="21" height="21" viewBox="0 0 21 21" fill="none" xmlns="http://www.w3.org/2000/svg">
<rect width="21" height="21" rx="5" fill="#3E3D66"/>
<path d="M7.5091 16.8C7.98243 16.8 8.3561 16.6327 8.65006 16.3332L8.34115 16.0117C8.12193 16.2231 7.86285 16.3552 7.52903 16.3552C6.88133 16.3552 6.47278 15.884 6.47278 15.1134C6.47278 14.3516 6.91122 13.8848 7.54398 13.8848C7.84292 13.8848 8.07211 14.0037 8.26144 14.1754L8.57532 13.8495C8.35112 13.6338 7.99239 13.44 7.53402 13.44C6.6073 13.44 5.87988 14.0741 5.87988 15.131C5.87988 16.1923 6.58737 16.8 7.5091 16.8Z" fill="white"/>
<path d="M9.85321 15.4173L10.0027 14.9813C10.1223 14.629 10.2369 14.2723 10.3415 13.9024H10.3614C10.476 14.2679 10.5856 14.629 10.7102 14.9813L10.8547 15.4173H9.85321ZM11.3031 16.7428H11.9159L10.7002 13.5017H10.0326L8.81689 16.7428H9.4048L9.71869 15.818H10.9942L11.3031 16.7428Z" fill="white"/>
<path d="M12.3995 16.7428H13.3811C14.4772 16.7428 15.1199 16.1615 15.1199 15.109C15.1199 14.0521 14.4772 13.5017 13.3512 13.5017H12.3995V16.7428ZM12.9775 16.3244V13.9156H13.3113C14.0985 13.9156 14.522 14.2987 14.522 15.109C14.522 15.9149 14.0985 16.3244 13.3113 16.3244H12.9775Z" fill="white"/>
<path d="M7.01142 11.76C8.33427 11.76 9.40272 10.9841 9.40272 9.68101C9.40272 8.68628 8.7006 8.02975 7.81531 7.8308V7.79101C8.60902 7.50254 9.14833 6.91564 9.14833 6.03033C9.14833 4.85654 8.23251 4.20001 6.98089 4.20001C6.11595 4.20001 5.45453 4.56806 4.89486 5.07538L5.39347 5.65233C5.81068 5.24449 6.33982 4.94606 6.94019 4.92617C7.71355 4.94606 8.20199 5.3937 8.20199 6.09996C8.20199 6.8858 7.67285 7.49259 6.13631 7.49259V8.18891C7.85601 8.18891 8.45638 8.7758 8.45638 9.65117C8.45638 10.4867 7.82548 11.004 6.94019 11.004C6.0956 11.004 5.52576 10.6161 5.0882 10.1684L4.62012 10.7653C5.10855 11.2825 5.84121 11.76 7.01142 11.76Z" fill="white"/>
<path d="M10.987 11.6307H12.9C15.1489 11.6307 16.3801 10.2679 16.3801 7.96012C16.3801 5.64238 15.1489 4.33928 12.8593 4.33928H10.987V11.6307ZM11.9333 10.8747V5.08533H12.7779C14.5383 5.08533 15.4032 6.10991 15.4032 7.96012C15.4032 9.80038 14.5383 10.8747 12.7779 10.8747H11.9333Z" fill="white"/>
</svg>
