<svg width="21" height="21" viewBox="0 0 21 21" fill="none" xmlns="http://www.w3.org/2000/svg">
<rect width="21" height="21" rx="5" fill="#663D3D"/>
<path d="M7.5091 16.8C7.98243 16.8 8.3561 16.6327 8.65006 16.3332L8.34115 16.0117C8.12193 16.2231 7.86285 16.3552 7.52903 16.3552C6.88133 16.3552 6.47278 15.884 6.47278 15.1134C6.47278 14.3516 6.91122 13.8848 7.54398 13.8848C7.84292 13.8848 8.07211 14.0037 8.26144 14.1754L8.57532 13.8495C8.35112 13.6338 7.99239 13.44 7.53402 13.44C6.6073 13.44 5.87988 14.0741 5.87988 15.131C5.87988 16.1923 6.58737 16.8 7.5091 16.8Z" fill="white"/>
<path d="M9.85321 15.4173L10.0027 14.9813C10.1223 14.629 10.2369 14.2723 10.3415 13.9024H10.3614C10.476 14.2679 10.5856 14.629 10.7102 14.9813L10.8547 15.4173H9.85321ZM11.3031 16.7428H11.9159L10.7002 13.5017H10.0326L8.81689 16.7428H9.4048L9.71869 15.818H10.9942L11.3031 16.7428Z" fill="white"/>
<path d="M12.3995 16.7428H13.3811C14.4772 16.7428 15.1199 16.1615 15.1199 15.109C15.1199 14.0521 14.4772 13.5017 13.3512 13.5017H12.3995V16.7428ZM12.9775 16.3244V13.9156H13.3113C14.0985 13.9156 14.522 14.2987 14.522 15.109C14.522 15.9149 14.0985 16.3244 13.3113 16.3244H12.9775Z" fill="white"/>
<path d="M5.08113 11.76H9.81724V10.9605H7.73171C7.35159 10.9605 6.88928 11.001 6.49888 11.0313C8.26593 9.3817 9.44739 7.87375 9.44739 6.39616C9.44739 5.07037 8.60496 4.20001 7.25913 4.20001C6.30369 4.20001 5.65645 4.63519 5.04004 5.29302L5.58454 5.81929C5.99548 5.33351 6.5297 4.95905 7.14612 4.95905C8.08101 4.95905 8.53305 5.5764 8.53305 6.42652C8.53305 7.7017 7.44405 9.17929 5.08113 11.2135V11.76Z" fill="white"/>
<path d="M11.3551 11.76H13.2865C15.5569 11.76 16.8 10.3735 16.8 8.02555C16.8 5.66748 15.5569 4.3417 13.2454 4.3417H11.3551V11.76ZM12.3105 10.9909V5.10074H13.1632C14.9405 5.10074 15.8138 6.14314 15.8138 8.02555C15.8138 9.89784 14.9405 10.9909 13.1632 10.9909H12.3105Z" fill="white"/>
</svg>
