<svg width="30" height="30" viewBox="0 0 30 30" fill="none" xmlns="http://www.w3.org/2000/svg">
<path fill-rule="evenodd" clip-rule="evenodd" d="M30 24C30 27.3137 27.3137 30 24 30H6C2.68629 30 0 27.3137 0 24V6C0 2.68629 2.68629 0 6 0H24C27.3137 0 30 2.68629 30 6V24Z" fill="#EA4C3A"/>
<path d="M15.3722 5.37706C15.8242 5.59006 15.7302 5.86606 15.5912 7.17006C15.4492 8.51506 14.9732 10.9721 14.0562 13.3891C13.1382 15.8021 11.7762 18.1731 10.5892 19.9281C9.40322 21.6841 8.38822 22.8251 7.61422 23.4841C6.83722 24.1431 6.30022 24.3191 5.94922 24.3771C5.60122 24.4351 5.44322 24.3771 5.34922 24.2001C5.25522 24.0241 5.22222 23.7341 5.30322 23.3801C5.38222 23.0301 5.57122 22.6201 6.10722 22.0951C6.64822 21.5681 7.53322 20.9231 8.76822 20.3241C10.0032 19.7241 11.5852 19.1681 12.8842 18.7871C14.1832 18.4081 15.1952 18.2021 16.0812 18.0411C16.9692 17.8791 17.7282 17.7641 18.4722 17.7041C19.2162 17.6481 19.9462 17.6481 20.6582 17.7041C21.3702 17.7641 22.0662 17.8791 22.6692 18.0271C23.2692 18.1731 23.7772 18.3481 24.2202 18.6281C24.6622 18.9041 25.0432 19.2851 25.2322 19.7111C25.4242 20.1341 25.4242 20.6041 25.2652 20.9391C25.1072 21.2761 24.7892 21.4801 24.4262 21.5991C24.0622 21.7141 23.6512 21.7431 23.1592 21.5991C22.6692 21.4511 22.0972 21.1291 21.4972 20.7051C20.8962 20.2801 20.2622 19.7531 19.4402 18.9341C18.6162 18.1151 17.6022 17.0041 16.7482 15.9211C15.8942 14.8381 15.1952 13.7851 14.7202 12.8921C14.2472 11.9991 13.9932 11.2681 13.7872 10.5371C13.5812 9.80406 13.4232 9.07306 13.3602 8.41506C13.2972 7.75706 13.3262 7.17006 13.3902 6.70106C13.4532 6.23506 13.5502 5.88106 13.7072 5.64606C13.8652 5.41606 14.0882 5.29606 14.2462 5.23806C14.4042 5.18006 14.5002 5.18006 14.5942 5.16506C14.6882 5.15006 14.7822 5.12106 14.9272 5.16506C15.0652 5.20706 15.2482 5.31906 15.4312 5.43306" stroke="white" stroke-width="1.4" stroke-miterlimit="10" stroke-linejoin="round"/>
</svg>
