<svg width="25" height="25" viewBox="0 0 25 25" fill="none" xmlns="http://www.w3.org/2000/svg">
<rect width="25" height="25" rx="5" fill="#4788C7"/>
<path d="M6.58496 16.5C8.17342 16.5 9.14031 15.4934 9.14031 14.2562C9.14031 13.1239 8.51874 12.5577 7.66038 12.1697L6.66389 11.7189C6.07191 11.4672 5.4898 11.2156 5.4898 10.555C5.4898 9.93644 5.97325 9.55898 6.71322 9.55898C7.35452 9.55898 7.8577 9.8211 8.31155 10.251L8.91339 9.4751C8.36088 8.87746 7.56171 8.5 6.71322 8.5C5.33194 8.5 4.32559 9.41219 4.32559 10.6284C4.32559 11.7503 5.10502 12.3375 5.80552 12.652L6.81188 13.1134C7.48278 13.4279 7.9761 13.6481 7.9761 14.3506C7.9761 15.0007 7.48278 15.441 6.60469 15.441C5.90419 15.441 5.19382 15.0845 4.6709 14.5288L4 15.3676C4.66104 16.0806 5.58847 16.5 6.58496 16.5Z" fill="white"/>
<path d="M9.25742 16.5H10.0467L12.1473 8.64682H11.358L9.25742 16.5Z" fill="white"/>
<path d="M14.1232 16.3637H15.5045L16.4615 12.0754C16.5799 11.4672 16.6983 10.8906 16.797 10.3034H16.8463C16.945 10.8906 17.0535 11.4672 17.1818 12.0754L18.1585 16.3637H19.5694L21 8.64679H19.9048L19.2142 12.6625C19.0958 13.4699 18.9676 14.2982 18.8492 15.137H18.7998C18.6321 14.2982 18.4742 13.4699 18.3065 12.6625L17.3594 8.64679H16.353L15.4157 12.6625C15.248 13.4803 15.0803 14.3086 14.9224 15.137H14.8829L14.4981 12.6625L13.8174 8.64679H12.6334L14.1232 16.3637Z" fill="white"/>
</svg>
