<svg width="240" height="60" viewBox="0 0 240 60" fill="none" xmlns="http://www.w3.org/2000/svg">
<rect width="65.934" height="60" rx="10" fill="#EE3524"/>
<path fill-rule="evenodd" clip-rule="evenodd" d="M30.1313 11.937L25.8173 7.94828L26.9297 6.71834L31.268 10.7296L31.2797 10.7413C37.2128 16.6843 40.3406 23.2168 40.3841 29.8695C40.4275 36.5248 37.383 43.1452 31.2797 49.2587L31.268 49.2704L26.9297 53.2816L25.8173 52.0517L30.1312 48.063C36 42.1799 38.7755 35.9712 38.7357 29.8805C38.696 23.7873 35.8377 17.6574 30.1313 11.937Z" fill="white"/>
<path fill-rule="evenodd" clip-rule="evenodd" d="M35.8026 11.937L40.1165 7.94828L39.0042 6.71834L34.6659 10.7296L34.6542 10.7413C28.7211 16.6843 25.5932 23.2168 25.5498 29.8695C25.5064 36.5248 28.5509 43.1452 34.6542 49.2587L34.6659 49.2704L39.0042 53.2816L40.1165 52.0517L35.8026 48.063C29.9339 42.1799 27.1584 35.9712 27.1981 29.8805C27.2379 23.7873 30.0962 17.6574 35.8026 11.937Z" fill="white"/>
<path fill-rule="evenodd" clip-rule="evenodd" d="M25.7142 30.6666H19.1208V29.3333H25.7142V30.6666Z" fill="white"/>
<path fill-rule="evenodd" clip-rule="evenodd" d="M46.8131 30.6666H40.2197V29.3333H46.8131V30.6666Z" fill="white"/>
<path fill-rule="evenodd" clip-rule="evenodd" d="M12.8571 35.3333C15.7702 35.3333 18.1318 32.9455 18.1318 30C18.1318 27.0545 15.7702 24.6666 12.8571 24.6666C9.94393 24.6666 7.58235 27.0545 7.58235 30C7.58235 32.9455 9.94393 35.3333 12.8571 35.3333ZM12.8571 36.6666C16.4985 36.6666 19.4505 33.6819 19.4505 30C19.4505 26.3181 16.4985 23.3333 12.8571 23.3333C9.21564 23.3333 6.26367 26.3181 6.26367 30C6.26367 33.6819 9.21564 36.6666 12.8571 36.6666Z" fill="white"/>
<path fill-rule="evenodd" clip-rule="evenodd" d="M53.0768 35.3333C55.99 35.3333 58.3515 32.9455 58.3515 30C58.3515 27.0545 55.99 24.6666 53.0768 24.6666C50.1637 24.6666 47.8021 27.0545 47.8021 30C47.8021 32.9455 50.1637 35.3333 53.0768 35.3333ZM53.0768 36.6666C56.7183 36.6666 59.6702 33.6819 59.6702 30C59.6702 26.3181 56.7183 23.3333 53.0768 23.3333C49.4354 23.3333 46.4834 26.3181 46.4834 30C46.4834 33.6819 49.4354 36.6666 53.0768 36.6666Z" fill="white"/>
<path d="M9.56037 29H16.1538V31H9.56037V29Z" fill="white"/>
<path d="M49.7801 29H52.0878V26.6666H54.0658V29H56.3735V31H54.0658V33.3333H52.0878V31H49.7801V29Z" fill="white"/>
<path d="M28.6812 30.6666L31.9779 23.6666H33.6263V32.3333L35.2746 29.3333H37.2527L33.6263 36.3333H31.9779V27.6666L30.6593 30.6666H28.6812Z" fill="white"/>
<path d="M110.962 10H119.986V40H110.962V10Z" fill="white"/>
<path d="M81.7583 10H96.7703L99.3595 10.2778C100.248 10.3732 101.112 10.7086 101.894 11.2622C102.196 11.4767 102.485 11.7227 102.757 11.9977L103.497 12.7465L103.907 13.3803L104.317 14.1197L104.728 15.3873L104.768 15.558C104.959 16.3552 105.056 17.1847 105.056 18.0188V18.2198C105.056 18.933 104.972 19.642 104.806 20.3228C104.699 20.7638 104.559 21.1902 104.387 21.5959L104.351 21.6805C104.219 21.9917 104.07 22.2902 103.905 22.5738C103.743 22.8529 103.565 23.1168 103.373 23.3635L103.251 23.5211C102.923 23.8726 102.574 24.1883 102.205 24.465L101.774 24.7887L101.463 24.9604C100.906 25.268 100.324 25.5285 99.7235 25.7394L100.535 26.0877C100.814 26.2075 101.086 26.3526 101.349 26.5221L101.457 26.5917C101.777 26.7976 102.079 27.0464 102.358 27.334C102.625 27.6083 102.869 27.9164 103.087 28.2537L103.104 28.2796C103.419 28.7669 103.681 29.3081 103.881 29.8878L103.969 30.1433C104.146 30.6569 104.285 31.1911 104.384 31.7385L105.876 40H96.3602L96.1141 36.5141L95.868 33.7676L95.5415 31.918C95.4861 31.604 95.3901 31.3042 95.2576 31.0312C95.1187 30.745 94.9418 30.4926 94.7349 30.2854L94.5308 30.081C94.3839 29.9338 94.2216 29.814 94.0488 29.725C93.9492 29.6737 93.8466 29.6328 93.7419 29.6029L93.1609 29.4366H90.7819V23.0986H92.7792C93.3063 23.0986 93.8325 23.0565 94.3528 22.9728C94.703 22.9164 95.0407 22.7693 95.3456 22.5403C95.6893 22.2821 95.9827 21.9263 96.2034 21.5L96.3602 21.1972C96.4681 20.9193 96.5242 20.6129 96.5242 20.3022V19.7016C96.5242 19.4325 96.4937 19.1648 96.4337 18.9071L96.4019 18.7705C96.3206 18.4219 96.1735 18.1047 95.9737 17.8474C95.9033 17.7568 95.827 17.6743 95.7455 17.6009L95.654 17.5184C95.2558 17.1595 94.7955 16.9312 94.3132 16.8536C93.9284 16.7917 93.5393 16.7606 93.1496 16.7606H90.7819V40H81.7583V10Z" fill="white"/>
<path d="M214.488 10H223.511V21.831L229.09 10H239.262L231.386 24.1549L240 40H229.254L223.511 27.3239V40H214.488V10Z" fill="white"/>
<path d="M179.542 10V18.8732H171.666V40H162.643V18.8732H154.932V10H179.542Z" fill="white"/>
<path d="M128.353 10H148.697V17.1831H137.377V22.0423H148.369V29.2254H137.377V40H128.353V10Z" fill="white"/>
<path d="M186.432 10H206.777V17.1831H195.456V21.4085H206.12V28.169H195.456V33.0282H206.777V40H186.432V10Z" fill="white"/>
<path d="M84.2335 49.0187C83.4467 48.8078 82.8733 48.5493 82.5133 48.2433C82.1565 47.9344 81.9781 47.5541 81.9781 47.1025C81.9781 46.5915 82.1963 46.1696 82.6327 45.8369C83.0724 45.5012 83.6426 45.3333 84.3434 45.3333C84.8213 45.3333 85.2465 45.4195 85.6193 45.5918C85.9952 45.7641 86.285 46.0018 86.4889 46.3048C86.696 46.6079 86.7995 46.9391 86.7995 47.2986H85.8773C85.8773 46.9064 85.7435 46.5989 85.4759 46.3761C85.2083 46.1503 84.8308 46.0374 84.3434 46.0374C83.8911 46.0374 83.5375 46.131 83.2826 46.3182C83.0309 46.5024 82.9051 46.7594 82.9051 47.0891C82.9051 47.3535 83.0246 47.5778 83.2635 47.762C83.5056 47.9433 83.915 48.1096 84.4915 48.2612C85.0713 48.4127 85.5237 48.5805 85.8486 48.7647C86.1767 48.9459 86.4188 49.1584 86.5749 49.402C86.7342 49.6456 86.8139 49.9323 86.8139 50.262C86.8139 50.7879 86.594 51.2098 86.1544 51.5276C85.7148 51.8426 85.1271 52 84.3912 52C83.9134 52 83.4674 51.9153 83.0532 51.746C82.6391 51.5737 82.319 51.339 82.0928 51.0419C81.8698 50.7448 81.7583 50.4076 81.7583 50.0303H82.6805C82.6805 50.4225 82.835 50.7329 83.144 50.9617C83.4562 51.1875 83.8719 51.3004 84.3912 51.3004C84.8754 51.3004 85.2465 51.2083 85.5046 51.0241C85.7626 50.8399 85.8916 50.5888 85.8916 50.271C85.8916 49.9531 85.7722 49.708 85.5332 49.5357C85.2943 49.3604 84.8611 49.1881 84.2335 49.0187Z" fill="white"/>
<path d="M93.884 48.9118H90.8688V51.2112H94.3714V51.9109H89.9514V45.4225H94.3236V46.1266H90.8688V48.2121H93.884V48.9118Z" fill="white"/>
<path d="M102.818 51.9109H101.895L98.3929 46.9109V51.9109H97.4706V45.4225H98.3929L101.905 50.4448V45.4225H102.818V51.9109Z" fill="white"/>
<path d="M108.454 49.0187C107.667 48.8078 107.094 48.5493 106.734 48.2433C106.377 47.9344 106.199 47.5541 106.199 47.1025C106.199 46.5915 106.417 46.1696 106.854 45.8369C107.293 45.5012 107.863 45.3333 108.564 45.3333C109.042 45.3333 109.467 45.4195 109.84 45.5918C110.216 45.7641 110.506 46.0018 110.71 46.3048C110.917 46.6079 111.02 46.9391 111.02 47.2986H110.098C110.098 46.9064 109.964 46.5989 109.697 46.3761C109.429 46.1503 109.052 46.0374 108.564 46.0374C108.112 46.0374 107.758 46.131 107.503 46.3182C107.252 46.5024 107.126 46.7594 107.126 47.0891C107.126 47.3535 107.245 47.5778 107.484 47.762C107.726 47.9433 108.136 48.1096 108.712 48.2612C109.292 48.4127 109.744 48.5805 110.069 48.7647C110.398 48.9459 110.64 49.1584 110.796 49.402C110.955 49.6456 111.035 49.9323 111.035 50.262C111.035 50.7879 110.815 51.2098 110.375 51.5276C109.936 51.8426 109.348 52 108.612 52C108.134 52 107.688 51.9153 107.274 51.746C106.86 51.5737 106.54 51.339 106.314 51.0419C106.091 50.7448 105.979 50.4076 105.979 50.0303H106.901C106.901 50.4225 107.056 50.7329 107.365 50.9617C107.677 51.1875 108.093 51.3004 108.612 51.3004C109.096 51.3004 109.467 51.2083 109.725 51.0241C109.983 50.8399 110.112 50.5888 110.112 50.271C110.112 49.9531 109.993 49.708 109.754 49.5357C109.515 49.3604 109.082 49.1881 108.454 49.0187Z" fill="white"/>
<path d="M119.524 48.8761C119.524 49.5119 119.409 50.0674 119.18 50.5428C118.951 51.0152 118.626 51.3761 118.205 51.6257C117.785 51.8752 117.294 52 116.733 52C116.185 52 115.7 51.8752 115.276 51.6257C114.852 51.3732 114.523 51.0152 114.287 50.5517C114.054 50.0853 113.935 49.5461 113.928 48.9341V48.4661C113.928 47.8423 114.045 47.2912 114.277 46.8128C114.51 46.3345 114.838 45.9691 115.262 45.7166C115.688 45.4611 116.176 45.3333 116.724 45.3333C117.281 45.3333 117.772 45.4596 118.196 45.7121C118.622 45.9617 118.951 46.3256 119.18 46.8039C119.409 47.2793 119.524 47.8333 119.524 48.4661V48.8761ZM118.611 48.4572C118.611 47.6878 118.446 47.098 118.114 46.6881C117.783 46.2751 117.319 46.0686 116.724 46.0686C116.144 46.0686 115.687 46.2751 115.352 46.6881C115.021 47.098 114.851 47.6685 114.841 48.3993V48.8761C114.841 49.6218 115.008 50.2086 115.343 50.6364C115.681 51.0612 116.144 51.2736 116.733 51.2736C117.326 51.2736 117.785 51.0731 118.11 50.672C118.434 50.268 118.602 49.6901 118.611 48.9385V48.4572Z" fill="white"/>
<path d="M125.409 49.2861H123.775V51.9109H122.853V45.4225H125.156C125.939 45.4225 126.542 45.5888 126.962 45.9216C127.386 46.2543 127.598 46.7386 127.598 47.3743C127.598 47.7784 127.48 48.1304 127.244 48.4305C127.011 48.7306 126.686 48.9549 126.269 49.1034L127.903 51.8574V51.9109H126.919L125.409 49.2861ZM123.775 48.5865H125.184C125.64 48.5865 126.002 48.4765 126.269 48.2567C126.54 48.0368 126.675 47.7427 126.675 47.3743C126.675 46.9733 126.546 46.6658 126.288 46.4519C126.033 46.238 125.664 46.1295 125.18 46.1266H123.775V48.5865Z" fill="white"/>
<path d="M132.895 49.0187C132.108 48.8078 131.535 48.5493 131.175 48.2433C130.818 47.9344 130.639 47.5541 130.639 47.1025C130.639 46.5915 130.858 46.1696 131.294 45.8369C131.734 45.5012 132.304 45.3333 133.005 45.3333C133.483 45.3333 133.908 45.4195 134.281 45.5918C134.656 45.7641 134.946 46.0018 135.15 46.3048C135.357 46.6079 135.461 46.9391 135.461 47.2986H134.539C134.539 46.9064 134.405 46.5989 134.137 46.3761C133.87 46.1503 133.492 46.0374 133.005 46.0374C132.552 46.0374 132.199 46.131 131.944 46.3182C131.692 46.5024 131.566 46.7594 131.566 47.0891C131.566 47.3535 131.686 47.5778 131.925 47.762C132.167 47.9433 132.576 48.1096 133.153 48.2612C133.733 48.4127 134.185 48.5805 134.51 48.7647C134.838 48.9459 135.08 49.1584 135.236 49.402C135.396 49.6456 135.475 49.9323 135.475 50.262C135.475 50.7879 135.255 51.2098 134.816 51.5276C134.376 51.8426 133.788 52 133.053 52C132.575 52 132.129 51.9153 131.715 51.746C131.3 51.5737 130.98 51.339 130.754 51.0419C130.531 50.7448 130.42 50.4076 130.42 50.0303H131.342C131.342 50.4225 131.496 50.7329 131.805 50.9617C132.118 51.1875 132.533 51.3004 133.053 51.3004C133.537 51.3004 133.908 51.2083 134.166 51.0241C134.424 50.8399 134.553 50.5888 134.553 50.271C134.553 49.9531 134.434 49.708 134.195 49.5357C133.956 49.3604 133.522 49.1881 132.895 49.0187Z" fill="white"/>
<path d="M142.672 50.1685C142.672 49.8565 142.765 49.5698 142.95 49.3084C143.138 49.047 143.494 48.7424 144.02 48.3948C143.711 48.0443 143.504 47.762 143.399 47.5481C143.294 47.3342 143.241 47.1218 143.241 46.9109C143.241 46.4177 143.397 46.0315 143.709 45.7522C144.022 45.473 144.445 45.3333 144.98 45.3333C145.458 45.3333 145.853 45.4641 146.165 45.7255C146.478 45.984 146.634 46.3108 146.634 46.7059C146.634 46.9673 146.562 47.2095 146.419 47.4323C146.279 47.6521 146.032 47.8838 145.678 48.1275L145.167 48.4795L146.715 50.2041C146.932 49.8179 147.04 49.3886 147.04 48.9162H147.838C147.838 49.6738 147.642 50.3021 147.25 50.8013L148.244 51.9109H147.183L146.72 51.3984C146.484 51.5945 146.207 51.7445 145.888 51.8485C145.573 51.9495 145.251 52 144.923 52C144.245 52 143.7 51.8322 143.289 51.4964C142.878 51.1607 142.672 50.7181 142.672 50.1685ZM144.923 51.3271C145.391 51.3271 145.82 51.1607 146.208 50.828L144.512 48.9341L144.354 49.041C143.822 49.4064 143.556 49.7822 143.556 50.1685C143.556 50.519 143.677 50.7998 143.92 51.0107C144.165 51.2216 144.499 51.3271 144.923 51.3271ZM144.125 46.8841C144.125 47.1694 144.313 47.5259 144.689 47.9537L145.253 47.5838C145.469 47.4412 145.618 47.306 145.697 47.1783C145.777 47.0475 145.817 46.8901 145.817 46.7059C145.817 46.5068 145.737 46.342 145.578 46.2112C145.418 46.0776 145.218 46.0107 144.976 46.0107C144.714 46.0107 144.507 46.0939 144.354 46.2603C144.202 46.4237 144.125 46.6316 144.125 46.8841Z" fill="white"/>
<path d="M156.411 51.9109H155.494V45.4225H156.411V51.9109Z" fill="white"/>
<path d="M165.398 51.9109H164.475L160.973 46.9109V51.9109H160.051V45.4225H160.973L164.485 50.4448V45.4225H165.398V51.9109Z" fill="white"/>
<path d="M171.034 49.0187C170.247 48.8078 169.674 48.5493 169.314 48.2433C168.957 47.9344 168.779 47.5541 168.779 47.1025C168.779 46.5915 168.997 46.1696 169.433 45.8369C169.873 45.5012 170.443 45.3333 171.144 45.3333C171.622 45.3333 172.047 45.4195 172.42 45.5918C172.796 45.7641 173.086 46.0018 173.29 46.3048C173.497 46.6079 173.6 46.9391 173.6 47.2986H172.678C172.678 46.9064 172.544 46.5989 172.277 46.3761C172.009 46.1503 171.631 46.0374 171.144 46.0374C170.692 46.0374 170.338 46.131 170.083 46.3182C169.832 46.5024 169.706 46.7594 169.706 47.0891C169.706 47.3535 169.825 47.5778 170.064 47.762C170.306 47.9433 170.716 48.1096 171.292 48.2612C171.872 48.4127 172.324 48.5805 172.649 48.7647C172.977 48.9459 173.219 49.1584 173.376 49.402C173.535 49.6456 173.615 49.9323 173.615 50.262C173.615 50.7879 173.395 51.2098 172.955 51.5276C172.515 51.8426 171.928 52 171.192 52C170.714 52 170.268 51.9153 169.854 51.746C169.44 51.5737 169.12 51.339 168.893 51.0419C168.67 50.7448 168.559 50.4076 168.559 50.0303H169.481C169.481 50.4225 169.636 50.7329 169.945 50.9617C170.257 51.1875 170.673 51.3004 171.192 51.3004C171.676 51.3004 172.047 51.2083 172.305 51.0241C172.563 50.8399 172.692 50.5888 172.692 50.271C172.692 49.9531 172.573 49.708 172.334 49.5357C172.095 49.3604 171.662 49.1881 171.034 49.0187Z" fill="white"/>
<path d="M181.559 46.1266H179.323V51.9109H178.41V46.1266H176.179V45.4225H181.559V46.1266Z" fill="white"/>
<path d="M187.1 49.2861H185.466V51.9109H184.544V45.4225H186.847C187.631 45.4225 188.233 45.5888 188.653 45.9216C189.077 46.2543 189.289 46.7386 189.289 47.3743C189.289 47.7784 189.171 48.1304 188.935 48.4305C188.702 48.7306 188.378 48.9549 187.96 49.1034L189.594 51.8574V51.9109H188.61L187.1 49.2861ZM185.466 48.5865H186.876C187.331 48.5865 187.693 48.4765 187.96 48.2567C188.231 48.0368 188.366 47.7427 188.366 47.3743C188.366 46.9733 188.237 46.6658 187.979 46.4519C187.725 46.238 187.355 46.1295 186.871 46.1266H185.466V48.5865Z" fill="white"/>
<path d="M197.434 45.4225V49.8342C197.431 50.4462 197.224 50.9468 196.813 51.336C196.405 51.7252 195.851 51.9436 195.15 51.9911L194.906 52C194.145 52 193.538 51.8084 193.086 51.4251C192.633 51.0419 192.404 50.5146 192.397 49.8431V45.4225H193.305V49.8164C193.305 50.2858 193.444 50.6512 193.721 50.9127C193.998 51.1711 194.393 51.3004 194.906 51.3004C195.425 51.3004 195.822 51.1711 196.096 50.9127C196.373 50.6542 196.512 50.2903 196.512 49.8209V45.4225H197.434Z" fill="white"/>
<path d="M202.024 45.4225L204.299 50.7166L206.573 45.4225H207.763V51.9109H206.845V49.3841L206.931 46.6569L204.647 51.9109H203.945L201.666 46.6702L201.756 49.3841V51.9109H200.839V45.4225H202.024Z" fill="white"/>
<path d="M215.273 48.9118H212.257V51.2112H215.76V51.9109H211.34V45.4225H215.712V46.1266H212.257V48.2121H215.273V48.9118Z" fill="white"/>
<path d="M224.206 51.9109H223.284L219.782 46.9109V51.9109H218.859V45.4225H219.782L223.294 50.4448V45.4225H224.206V51.9109Z" fill="white"/>
<path d="M232.457 46.1266H230.22V51.9109H229.308V46.1266H227.076V45.4225H232.457V46.1266Z" fill="white"/>
<path d="M237.42 49.0187C236.633 48.8078 236.059 48.5493 235.699 48.2433C235.343 47.9344 235.164 47.5541 235.164 47.1025C235.164 46.5915 235.382 46.1696 235.819 45.8369C236.258 45.5012 236.829 45.3333 237.529 45.3333C238.007 45.3333 238.433 45.4195 238.805 45.5918C239.181 45.7641 239.471 46.0018 239.675 46.3048C239.882 46.6079 239.986 46.9391 239.986 47.2986H239.063C239.063 46.9064 238.93 46.5989 238.662 46.3761C238.394 46.1503 238.017 46.0374 237.529 46.0374C237.077 46.0374 236.724 46.131 236.469 46.3182C236.217 46.5024 236.091 46.7594 236.091 47.0891C236.091 47.3535 236.211 47.5778 236.45 47.762C236.692 47.9433 237.101 48.1096 237.678 48.2612C238.257 48.4127 238.71 48.5805 239.035 48.7647C239.363 48.9459 239.605 49.1584 239.761 49.402C239.92 49.6456 240 49.9323 240 50.262C240 50.7879 239.78 51.2098 239.34 51.5276C238.901 51.8426 238.313 52 237.577 52C237.099 52 236.653 51.9153 236.239 51.746C235.825 51.5737 235.505 51.339 235.279 51.0419C235.056 50.7448 234.944 50.4076 234.944 50.0303H235.867C235.867 50.4225 236.021 50.7329 236.33 50.9617C236.642 51.1875 237.058 51.3004 237.577 51.3004C238.061 51.3004 238.433 51.2083 238.691 51.0241C238.949 50.8399 239.078 50.5888 239.078 50.271C239.078 49.9531 238.958 49.708 238.719 49.5357C238.48 49.3604 238.047 49.1881 237.42 49.0187Z" fill="white"/>
</svg>
